{"title":"Skyfall 2012 Cam New Source XviD Feel-Free","uid":7818669,"size":1515421468,"categoryP":"video","categoryS":"movies","magnet":"?xt=urn:btih:20014016e59ba527b3f7dcbdd9aff91b58508da6&amp;dn=Skyfall+2012+Cam+New+Source+XviD+Feel-Free&amp;tr=udp%3A%2F%2Ftracker.openbittorrent.com%3A80&amp;tr=udp%3A%2F%2Fopen.demonii.com%3A1337&amp;tr=udp%3A%2F%2Ftracker.coppersurfer.tk%3A6969&amp;tr=udp%3A%2F%2Fexodus.desync.com%3A6969","seeders":1,"leechers":0,"uploader":".BONE.","files":11,"time":1352741980,"description":"Genre:Action | Adventure | Crime\nLanguage:English &lt;a href=&quot;\nhttp://uk.imdb.com/title/tt1074638/&quot; rel=&quot;nofollow&quot; target=&quot;_NEW&quot;&gt;\nhttp://uk.imdb.com/title/tt1074638/&lt;/a&gt;\nSource:ILG Thanks\nEncoder:Tony\n\nFormat : AVI\nFormat/Info : Audio Video Interleave\nFile size : 1.41 GiB\nDuration : 2h 17mn\nOverall bit rate mode : Variable\nOverall bit rate : 1 468 Kbps\n\nVideo\nID : 0\nFormat : MPEG-4 Visual\nFormat profile : Simple@L5\nFormat settings, BVOP : No\nFormat settings, QPel : No\nFormat settings, GMC : No warppoints\nFormat settings, Matrix : Default (H.263)\nCodec ID : XVID\nCodec ID/Hint : XviD\nDuration : 2h 17mn\nBit rate : 1 332 Kbps\nWidth : 640 pixels\nHeight : 272 pixels\nDisplay aspect ratio : 2.35:1\nFrame rate : 25.000 fps\nColor space : YUV\nChroma subsampling : 4:2:0\nBit depth : 8 bits\nScan type : Progressive\nCompression mode : Lossy\nBits/(Pixel*Frame) : 0.306\nStream size : 1.28 GiB (91%)\nWriting library : XviD 64\n\nAudio\nID : 1\nFormat : MPEG Audio\nFormat version : Version 1\nFormat profile : Layer 3\nMode : Joint stereo\nMode extension : MS Stereo\nCodec ID : 55\nCodec ID/Hint : MP3\nDuration : 2h 17mn\nBit rate mode : Variable\nBit rate : 120 Kbps\nChannel(s) : 2 channels\nSampling rate : 48.0 KHz\nCompression mode : Lossy\nStream size : 121 MiB (8%)\nAlignment : Aligned on interleaves\nInterleave, duration : 24 ms (0.60 video frame)\nInterleave, preload duration : 514 ms\nWriting library : L3.99r\n\n\nPlot:\nBond's loyalty to M is tested as her past comes back to haunt her. As MI6 comes under attack, 007 must track down and destroy the threat, no matter how personal the cost.\n &lt;a href=&quot;\nhttp://lookpic.com/O/i2/1593/kaw0LnkO.png&quot; rel=&quot;nofollow&quot; target=&quot;_NEW&quot;&gt;\nhttp://lookpic.com/O/i2/1593/kaw0LnkO.png&lt;/a&gt; &lt;a href=&quot;\nhttp://lookpic.com/O/i2/1180/4FDFz3Le.png#&quot; rel=&quot;nofollow&quot; target=&quot;_NEW&quot;&gt;\nhttp://lookpic.com/O/i2/1180/4FDFz3Le.png#&lt;/a&gt; &lt;a href=&quot;\nhttp://lookpic.com/O/i2/710/cjd4N1yU.png&quot; rel=&quot;nofollow&quot; target=&quot;_NEW&quot;&gt;\nhttp://lookpic.com/O/i2/710/cjd4N1yU.png&lt;/a&gt; &lt;a href=&quot;\nhttp://lookpic.com/O/i2/62/ZOxJCkc6.png&quot; rel=&quot;nofollow&quot; target=&quot;_NEW&quot;&gt;\nhttp://lookpic.com/O/i2/62/ZOxJCkc6.png&lt;/a&gt; &lt;a href=&quot;\nhttp://lookpic.com/O/i2/513/p6eRcuvX.png&quot; rel=&quot;nofollow&quot; target=&quot;_NEW&quot;&gt;\nhttp://lookpic.com/O/i2/513/p6eRcuvX.png&lt;/a&gt;","torrent":{"xt":"urn:btih:20014016e59ba527b3f7dcbdd9aff91b58508da6","amp;dn":"Skyfall+2012+Cam+New+Source+XviD+Feel-Free","amp;tr":["udp%3A%2F%2Ftracker.openbittorrent.com%3A80","udp%3A%2F%2Fopen.demonii.com%3A1337","udp%3A%2F%2Ftracker.coppersurfer.tk%3A6969","udp%3A%2F%2Fexodus.desync.com%3A6969"],"infoHash":"20014016e59ba527b3f7dcbdd9aff91b58508da6","infoHashBuffer":{"type":"Buffer","data":[32,1,64,22,229,155,165,39,179,247,220,189,217,175,249,27,88,80,141,166]},"announce":[],"urlList":[]}}